<svg width="612" height="524" viewBox="0 0 612 524" fill="none" xmlns="http://www.w3.org/2000/svg">
<mask id="mask0_1114:24330" style="mask-type:alpha" maskUnits="userSpaceOnUse" x="0" y="0" width="612" height="524">
<rect width="612" height="524" fill="#C4C4C4"/>
</mask>
<g mask="url(#mask0_1114:24330)">
<path d="M-882.874 1171.58C-882.874 1171.58 -776.646 835.177 -430.654 946.025C-84.6616 1056.87 19.5587 809.923 18.1598 634.712C16.7609 459.502 116.564 -87.0792 779.73 37.5969" stroke="#EBEEF9" stroke-width="3" stroke-miterlimit="10"/>
<path d="M-882.548 1170.4C-882.548 1170.4 -769.266 839.271 -427.185 952.564C-85.1036 1065.86 27.9505 828.295 39.2086 639.418C50.4737 450.591 158.037 -76.1401 811.121 47.3586" stroke="#EBEEF9" stroke-width="2.9191" stroke-miterlimit="10"/>
<path d="M-882.178 1169.2C-882.178 1169.2 -761.841 843.357 -423.712 959.152C-85.5839 1074.95 36.3873 846.66 60.2608 644.173C84.1413 441.735 199.473 -65.0968 842.474 57.2244" stroke="#EBEEF9" stroke-width="2.8382" stroke-miterlimit="10"/>
<path d="M-881.851 1168.02C-881.851 1168.02 -754.46 847.451 -420.235 965.741C-86.0108 1084.03 44.7804 865.032 81.3179 648.928C117.855 432.824 240.955 -54.1091 873.922 67.0277" stroke="#EBEEF9" stroke-width="2.7573" stroke-miterlimit="10"/>
<path d="M-881.477 1166.82C-881.477 1166.82 -746.983 851.531 -416.76 972.329C-86.5365 1093.13 53.1785 883.452 102.373 653.682C151.526 423.968 282.386 -43.1143 905.32 76.8382" stroke="#EBEEF9" stroke-width="2.6765" stroke-miterlimit="10"/>
<path d="M-881.153 1165.64C-881.153 1165.64 -739.606 855.625 -413.286 978.917C-86.9739 1102.16 61.6166 901.817 123.434 658.486C185.251 415.154 323.823 -32.0712 936.73 86.7455" stroke="#EBEEF9" stroke-width="2.5956" stroke-miterlimit="10"/>
<path d="M-880.778 1164.44C-880.778 1164.44 -732.177 859.712 -409.761 985.498C-87.3528 1111.24 70.0577 920.182 144.539 663.233C219.02 406.285 365.353 -21.0904 968.178 96.5489" stroke="#EBEEF9" stroke-width="2.5147" stroke-miterlimit="10"/>
<path d="M-880.403 1163.25C-880.403 1163.25 -724.741 863.848 -406.285 992.087C-87.8294 1120.33 78.4496 938.554 165.595 667.988C252.684 397.381 406.785 -10.0956 999.528 106.366" stroke="#EBEEF9" stroke-width="2.4338" stroke-miterlimit="10"/>
<path d="M-880.08 1162.06C-880.08 1162.06 -717.364 867.942 -402.819 998.626C-88.2741 1129.31 86.8387 956.926 186.592 672.701C286.345 388.476 448.215 0.898998 1030.92 116.176" stroke="#EBEEF9" stroke-width="2.3529" stroke-miterlimit="10"/>
<path d="M-879.706 1160.87C-879.706 1160.87 -709.936 872.028 -399.344 1005.21C-88.6959 1138.44 95.2784 975.291 207.647 677.456C320.065 379.614 489.646 11.8937 1062.32 125.987" stroke="#EBEEF9" stroke-width="2.2721" stroke-miterlimit="10"/>
<path d="M-879.381 1159.68C-879.381 1159.68 -702.557 876.122 -395.868 1011.8C-89.173 1147.53 103.67 993.663 228.703 682.21C353.791 370.8 531.133 22.93 1093.77 135.839" stroke="#EBEEF9" stroke-width="2.1912" stroke-miterlimit="10"/>
<path d="M-879.008 1158.49C-879.008 1158.49 -695.13 880.209 -392.394 1018.39C-89.6099 1156.57 112.067 1012.08 249.757 686.965C387.453 361.895 572.564 33.9246 1125.12 145.656" stroke="#EBEEF9" stroke-width="2.1103" stroke-miterlimit="10"/>
<path d="M-878.628 1157.34C-878.628 1157.34 -687.695 884.345 -388.864 1025.02C-90.032 1165.7 120.513 1030.5 270.867 691.761C421.221 353.026 614.099 44.9541 1156.62 155.501" stroke="#EBEEF9" stroke-width="2.0294" stroke-miterlimit="10"/>
<path d="M-878.303 1156.16C-878.303 1156.16 -680.317 888.439 -385.389 1031.61C-90.4617 1174.78 128.952 1048.86 291.921 696.516C454.89 344.17 655.529 55.9488 1188.02 165.311" stroke="#EBEEF9" stroke-width="1.9485" stroke-miterlimit="10"/>
<path d="M-877.93 1154.96C-877.93 1154.96 -672.889 892.525 -381.914 1038.2C-90.939 1183.87 137.35 1067.28 312.983 701.319C488.609 335.307 696.961 66.9432 1219.42 175.121" stroke="#EBEEF9" stroke-width="1.8677" stroke-miterlimit="10"/>
<path d="M-877.602 1153.77C-877.602 1153.77 -665.508 896.62 -378.444 1044.74C-91.3725 1192.9 145.736 1085.61 334.034 706.025C522.331 326.445 738.45 77.9799 1250.82 184.981" stroke="#EBEEF9" stroke-width="1.7868" stroke-miterlimit="10"/>
<path d="M-877.229 1152.58C-877.229 1152.58 -658.081 900.707 -374.97 1051.33C-91.8579 1201.94 154.175 1103.97 355.088 710.78C556 317.59 779.88 88.9746 1282.22 194.791" stroke="#EBEEF9" stroke-width="1.7059" stroke-miterlimit="10"/>
<path d="M-876.904 1151.39C-876.904 1151.39 -650.702 904.8 -371.494 1057.91C-92.2865 1211.03 162.566 1122.34 376.143 715.534C589.72 308.727 821.361 99.9621 1313.63 204.65" stroke="#EBEEF9" stroke-width="1.625" stroke-miterlimit="10"/>
<path d="M-876.531 1150.2C-876.531 1150.2 -643.275 908.887 -368.02 1064.5C-92.7163 1220.11 170.963 1140.76 397.197 720.289C623.431 299.816 862.791 110.957 1345.02 214.46" stroke="#EBEEF9" stroke-width="1.5441" stroke-miterlimit="10"/>
<path d="M-876.16 1149.01C-876.16 1149.01 -635.85 912.974 -364.499 1071.08C-93.1479 1229.19 179.4 1159.13 418.249 725.044C657.147 290.953 904.275 121.993 1376.42 224.27" stroke="#EBEEF9" stroke-width="1.4632" stroke-miterlimit="10"/>
<path d="M-875.832 1147.82C-875.832 1147.82 -628.468 917.068 -361.021 1077.67C-93.5737 1238.27 187.843 1177.49 439.356 729.791C690.869 282.09 945.758 132.981 1407.87 234.074" stroke="#EBEEF9" stroke-width="1.3823" stroke-miterlimit="10"/>
<path d="M-875.458 1146.63C-875.458 1146.63 -621.04 921.155 -357.553 1084.21C-94.065 1247.27 196.234 1195.86 460.356 734.505C724.54 273.235 987.189 143.976 1439.27 243.933" stroke="#EBEEF9" stroke-width="1.3015" stroke-miterlimit="10"/>
<path d="M-875.135 1145.44C-875.135 1145.44 -613.663 925.249 -354.079 1090.8C-94.4957 1256.35 204.623 1214.24 481.416 739.308C758.257 264.372 1028.67 155.012 1470.67 253.743" stroke="#EBEEF9" stroke-width="1.2206" stroke-miterlimit="10"/>
<path d="M-874.76 1144.25C-874.76 1144.25 -606.234 929.336 -350.603 1097.39C-94.9721 1265.44 213.064 1232.6 502.472 744.062C791.88 255.523 1070.11 166.007 1502.02 263.56" stroke="#EBEEF9" stroke-width="1.1397" stroke-miterlimit="10"/>
<path d="M-874.385 1143.05C-874.385 1143.05 -598.805 933.423 -347.078 1103.97C-95.3508 1274.51 221.512 1251.02 523.577 748.81C825.642 246.605 1111.59 176.994 1533.47 273.412" stroke="#EBEEF9" stroke-width="1.0588" stroke-miterlimit="10"/>
</g>
</svg>
