<svg width="420" height="486" viewBox="0 0 420 486" fill="none" xmlns="http://www.w3.org/2000/svg">
<mask id="mask0_1114:24331" style="mask-type:alpha" maskUnits="userSpaceOnUse" x="0" y="0" width="420" height="486">
<rect width="420" height="486" fill="#C4C4C4"/>
</mask>
<g mask="url(#mask0_1114:24331)">
<path d="M1105.84 -450.844C1105.84 -450.844 1021.34 -183.246 746.116 -271.421C470.893 -359.596 387.99 -163.157 389.103 -23.7844C390.215 115.589 310.826 550.373 -216.697 451.198" stroke="#EBEEF9" stroke-width="3" stroke-miterlimit="10"/>
<path d="M1105.58 -449.9C1105.58 -449.9 1015.47 -186.503 743.356 -276.623C471.244 -366.744 381.314 -177.772 372.358 -27.5279C363.397 122.677 277.835 541.671 -241.668 443.433" stroke="#EBEEF9" stroke-width="2.9191" stroke-miterlimit="10"/>
<path d="M1105.29 -448.951C1105.29 -448.951 1009.56 -189.753 740.594 -281.864C471.626 -373.974 374.603 -192.38 355.612 -31.3099C336.616 129.722 244.874 532.887 -266.608 435.585" stroke="#EBEEF9" stroke-width="2.8382" stroke-miterlimit="10"/>
<path d="M1105.03 -448.006C1105.03 -448.006 1003.69 -193.01 737.83 -287.104C471.967 -381.199 367.928 -206.994 338.864 -35.092C309.8 136.81 211.879 524.146 -291.622 427.787" stroke="#EBEEF9" stroke-width="2.7573" stroke-miterlimit="10"/>
<path d="M1104.73 -447.057C1104.73 -447.057 997.745 -196.256 735.065 -292.345C472.385 -388.435 361.247 -221.647 322.115 -38.8744C283.015 143.854 178.921 515.4 -316.598 419.983" stroke="#EBEEF9" stroke-width="2.6765" stroke-miterlimit="10"/>
<path d="M1104.47 -446.113C1104.47 -446.113 991.875 -199.512 732.301 -297.586C472.732 -395.621 354.534 -236.256 305.361 -42.695C256.188 150.866 145.959 506.616 -341.585 412.102" stroke="#EBEEF9" stroke-width="2.5956" stroke-miterlimit="10"/>
<path d="M1104.17 -445.164C1104.17 -445.164 985.966 -202.763 729.497 -302.821C473.033 -402.841 347.819 -250.864 288.573 -46.4717C229.326 157.921 112.923 497.881 -366.6 404.304" stroke="#EBEEF9" stroke-width="2.5147" stroke-miterlimit="10"/>
<path d="M1103.87 -444.214C1103.87 -444.214 980.051 -206.053 726.732 -308.062C473.413 -410.071 341.144 -265.479 271.824 -50.2539C202.548 165.004 79.9658 489.135 -391.538 396.494" stroke="#EBEEF9" stroke-width="2.4338" stroke-miterlimit="10"/>
<path d="M1103.62 -443.27C1103.62 -443.27 974.184 -209.309 723.976 -313.264C473.767 -417.218 334.472 -280.093 255.122 -54.0028C175.772 172.087 47.0112 480.39 -416.511 388.691" stroke="#EBEEF9" stroke-width="2.3529" stroke-miterlimit="10"/>
<path d="M1103.32 -442.32C1103.32 -442.32 968.276 -212.56 721.211 -318.504C474.103 -424.482 327.759 -294.701 238.374 -57.7849C148.95 179.137 14.0544 471.644 -441.486 380.887" stroke="#EBEEF9" stroke-width="2.2721" stroke-miterlimit="10"/>
<path d="M1103.06 -441.376C1103.06 -441.376 962.405 -215.817 718.446 -323.745C474.482 -431.712 321.083 -309.315 221.624 -61.5671C122.121 186.148 -18.9475 462.865 -466.507 373.05" stroke="#EBEEF9" stroke-width="2.1912" stroke-miterlimit="10"/>
<path d="M1102.76 -440.427C1102.76 -440.427 956.497 -219.068 715.682 -328.986C474.829 -438.898 314.403 -323.968 204.876 -65.3493C95.3438 193.231 -51.9042 454.119 -491.443 365.241" stroke="#EBEEF9" stroke-width="2.1103" stroke-miterlimit="10"/>
<path d="M1102.46 -439.516C1102.46 -439.516 950.584 -222.357 712.875 -334.26C475.166 -446.162 307.685 -338.615 188.085 -69.1645C68.484 200.286 -84.9429 445.345 -516.5 357.41" stroke="#EBEEF9" stroke-width="2.0294" stroke-miterlimit="10"/>
<path d="M1102.2 -438.572C1102.2 -438.572 944.714 -225.614 710.111 -339.5C475.507 -453.387 300.972 -353.224 171.336 -72.9468C41.7008 207.331 -117.9 436.6 -541.476 349.606" stroke="#EBEEF9" stroke-width="1.9485" stroke-miterlimit="10"/>
<path d="M1101.91 -437.622C1101.91 -437.622 938.806 -228.865 707.347 -344.741C475.887 -460.617 294.292 -367.877 154.583 -76.7672C14.8791 214.381 -150.856 427.854 -566.451 341.802" stroke="#EBEEF9" stroke-width="1.8677" stroke-miterlimit="10"/>
<path d="M1101.65 -436.678C1101.65 -436.678 932.934 -232.121 704.585 -349.943C476.231 -467.803 287.62 -382.452 137.837 -80.511C-11.9461 221.43 -183.86 419.075 -591.435 333.96" stroke="#EBEEF9" stroke-width="1.7868" stroke-miterlimit="10"/>
<path d="M1101.35 -435.729C1101.35 -435.729 927.027 -235.372 701.822 -355.184C476.618 -474.995 280.908 -397.061 121.09 -84.2933C-38.728 228.475 -216.816 410.329 -616.409 326.156" stroke="#EBEEF9" stroke-width="1.7059" stroke-miterlimit="10"/>
<path d="M1101.09 -434.785C1101.09 -434.785 921.155 -238.629 699.056 -360.424C476.958 -482.22 274.232 -411.675 104.34 -88.0752C-65.5518 235.525 -249.813 401.589 -641.392 318.314" stroke="#EBEEF9" stroke-width="1.625" stroke-miterlimit="10"/>
<path d="M1100.79 -433.835C1100.79 -433.835 915.248 -241.88 696.294 -365.665C477.3 -489.445 267.553 -426.328 87.593 -91.8575C-92.3671 242.613 -282.769 392.843 -666.366 310.51" stroke="#EBEEF9" stroke-width="1.5441" stroke-miterlimit="10"/>
<path d="M1100.5 -432.886C1100.5 -432.886 909.341 -245.131 693.492 -370.9C477.643 -496.669 260.841 -440.936 70.8463 -95.6395C-119.187 249.663 -315.768 384.064 -691.339 302.706" stroke="#EBEEF9" stroke-width="1.4632" stroke-miterlimit="10"/>
<path d="M1100.24 -431.942C1100.24 -431.942 903.47 -248.387 690.727 -376.141C477.983 -503.894 254.127 -455.545 54.0579 -99.4161C-146.011 256.713 -348.765 375.323 -716.355 294.908" stroke="#EBEEF9" stroke-width="1.3823" stroke-miterlimit="10"/>
<path d="M1099.94 -430.992C1099.94 -430.992 897.561 -251.638 687.967 -381.343C478.373 -511.048 247.451 -470.159 37.3529 -103.165C-172.795 263.757 -381.723 366.577 -741.337 287.066" stroke="#EBEEF9" stroke-width="1.3015" stroke-miterlimit="10"/>
<path d="M1099.68 -430.048C1099.68 -430.048 891.693 -254.895 685.205 -386.583C478.716 -518.272 240.779 -484.773 20.6008 -106.986C-199.615 270.807 -414.722 357.799 -766.31 279.262" stroke="#EBEEF9" stroke-width="1.2206" stroke-miterlimit="10"/>
<path d="M1099.39 -429.098C1099.39 -429.098 885.784 -258.146 682.439 -391.824C479.095 -525.503 234.064 -499.382 3.85129 -110.768C-226.361 277.846 -447.68 349.053 -791.248 271.453" stroke="#EBEEF9" stroke-width="1.1397" stroke-miterlimit="10"/>
<path d="M1099.09 -428.149C1099.09 -428.149 879.873 -261.397 679.634 -397.059C479.395 -532.722 227.343 -514.029 -12.938 -114.545C-253.219 284.94 -480.678 340.313 -816.27 263.616" stroke="#EBEEF9" stroke-width="1.0588" stroke-miterlimit="10"/>
</g>
</svg>
