<svg width="370" height="522" viewBox="0 0 370 522" fill="none" xmlns="http://www.w3.org/2000/svg">
<mask id="mask0_1114:24422" style="mask-type:alpha" maskUnits="userSpaceOnUse" x="0" y="0" width="370" height="522">
<rect width="370" height="522" fill="#C4C4C4"/>
</mask>
<g mask="url(#mask0_1114:24422)">
<path d="M-711.087 -419.305C-711.087 -419.305 -625.338 -147.754 -346.05 -237.232C-66.7622 -326.709 17.3654 -127.369 16.2362 14.0623C15.107 155.494 95.6688 596.699 630.983 496.059" stroke="#EBEEF9" stroke-width="3" stroke-miterlimit="10"/>
<path d="M-710.824 -418.347C-710.824 -418.347 -619.382 -151.059 -343.25 -242.511C-67.1194 -333.962 24.139 -142.199 33.2266 10.2634C42.3199 162.687 129.146 587.869 656.322 488.18" stroke="#EBEEF9" stroke-width="2.9191" stroke-miterlimit="10"/>
<path d="M-710.525 -417.383C-710.525 -417.383 -613.388 -154.358 -340.448 -247.829C-67.5071 -341.299 30.9492 -157.023 50.2201 6.42557C69.4967 169.835 162.593 578.955 681.63 480.216" stroke="#EBEEF9" stroke-width="2.8382" stroke-miterlimit="10"/>
<path d="M-710.26 -416.425C-710.26 -416.425 -607.429 -157.663 -337.64 -253.147C-67.8509 -348.631 37.725 -171.854 67.2184 2.58752C96.7118 177.029 196.079 570.085 707.016 472.303" stroke="#EBEEF9" stroke-width="2.7573" stroke-miterlimit="10"/>
<path d="M-709.959 -415.462C-709.959 -415.462 -601.395 -160.956 -334.836 -258.465C-68.2763 -355.974 44.5029 -186.723 84.2132 -1.25051C123.89 184.177 229.522 561.21 732.36 464.384" stroke="#EBEEF9" stroke-width="2.6765" stroke-miterlimit="10"/>
<path d="M-709.697 -414.504C-709.697 -414.504 -595.438 -164.261 -332.03 -263.783C-68.6278 -363.266 51.3159 -201.547 101.215 -5.12759C151.114 191.292 262.971 552.296 757.716 456.386" stroke="#EBEEF9" stroke-width="2.5956" stroke-miterlimit="10"/>
<path d="M-709.395 -413.54C-709.395 -413.54 -589.443 -167.56 -329.186 -269.096C-68.9353 -370.592 58.1279 -216.372 118.25 -8.96012C178.371 198.451 296.493 543.432 783.099 448.473" stroke="#EBEEF9" stroke-width="2.5147" stroke-miterlimit="10"/>
<path d="M-709.093 -412.577C-709.093 -412.577 -583.441 -170.898 -326.38 -274.414C-69.3198 -377.929 64.9021 -231.202 135.246 -12.7982C205.546 205.639 329.938 534.557 808.405 440.548" stroke="#EBEEF9" stroke-width="2.4338" stroke-miterlimit="10"/>
<path d="M-708.832 -411.619C-708.832 -411.619 -577.486 -174.202 -323.582 -279.692C-69.6784 -385.182 71.6743 -246.031 152.196 -16.6024C232.718 212.826 363.38 525.682 833.748 432.629" stroke="#EBEEF9" stroke-width="2.3529" stroke-miterlimit="10"/>
<path d="M-708.529 -410.655C-708.529 -410.655 -571.489 -177.501 -320.776 -285.01C-70.0185 -392.553 78.4874 -260.856 169.192 -20.4404C259.937 219.98 396.825 516.807 859.093 424.71" stroke="#EBEEF9" stroke-width="2.2721" stroke-miterlimit="10"/>
<path d="M-708.267 -409.697C-708.267 -409.697 -565.533 -180.806 -317.971 -290.329C-70.4035 -399.89 85.261 -275.686 186.189 -24.2786C287.161 227.095 430.313 507.899 884.483 416.758" stroke="#EBEEF9" stroke-width="2.1912" stroke-miterlimit="10"/>
<path d="M-707.966 -408.734C-707.966 -408.734 -559.538 -184.105 -315.167 -295.647C-70.7568 -407.183 92.0385 -290.555 203.183 -28.1165C314.333 234.283 463.756 499.024 909.786 408.833" stroke="#EBEEF9" stroke-width="2.1103" stroke-miterlimit="10"/>
<path d="M-707.659 -407.809C-707.659 -407.809 -553.537 -187.443 -312.317 -300.998C-71.0972 -414.553 98.8568 -305.418 220.224 -31.9881C341.591 241.442 497.284 490.121 935.215 400.886" stroke="#EBEEF9" stroke-width="2.0294" stroke-miterlimit="10"/>
<path d="M-707.397 -406.851C-707.397 -406.851 -547.581 -190.748 -309.512 -306.316C-71.4437 -421.885 105.669 -320.243 237.219 -35.8262C368.769 248.591 530.727 481.246 960.559 392.967" stroke="#EBEEF9" stroke-width="1.9485" stroke-miterlimit="10"/>
<path d="M-707.096 -405.887C-707.096 -405.887 -541.586 -194.047 -306.708 -311.634C-71.8301 -429.222 112.447 -335.112 254.22 -39.7031C395.987 255.745 564.17 472.371 985.902 385.048" stroke="#EBEEF9" stroke-width="1.8677" stroke-miterlimit="10"/>
<path d="M-706.83 -404.93C-706.83 -404.93 -535.626 -197.352 -303.905 -316.913C-72.1786 -436.514 119.218 -349.903 271.213 -43.5021C423.208 262.899 597.662 463.462 1011.26 377.09" stroke="#EBEEF9" stroke-width="1.7868" stroke-miterlimit="10"/>
<path d="M-706.53 -403.966C-706.53 -403.966 -529.632 -200.651 -301.102 -322.232C-72.5713 -443.812 126.029 -364.727 288.207 -47.3402C450.386 270.047 631.104 454.587 1036.6 369.171" stroke="#EBEEF9" stroke-width="1.7059" stroke-miterlimit="10"/>
<path d="M-706.268 -403.008C-706.268 -403.008 -523.675 -203.955 -298.296 -327.549C-72.917 -451.144 132.803 -379.557 305.204 -51.1781C477.605 277.201 664.587 445.718 1061.95 361.213" stroke="#EBEEF9" stroke-width="1.625" stroke-miterlimit="10"/>
<path d="M-705.967 -402.045C-705.967 -402.045 -517.68 -207.254 -295.492 -332.868C-73.2641 -458.475 139.581 -394.426 322.199 -55.0161C504.817 284.394 698.03 436.843 1087.29 353.294" stroke="#EBEEF9" stroke-width="1.5441" stroke-miterlimit="10"/>
<path d="M-705.668 -401.081C-705.668 -401.081 -511.687 -210.553 -292.65 -338.18C-73.613 -465.807 146.39 -409.251 339.192 -58.854C532.032 291.548 731.516 427.934 1112.63 345.375" stroke="#EBEEF9" stroke-width="1.4632" stroke-miterlimit="10"/>
<path d="M-705.402 -400.123C-705.402 -400.123 -505.728 -213.858 -289.842 -343.498C-73.9561 -473.138 153.206 -424.075 356.23 -62.6864C559.253 298.702 765.002 419.065 1138.02 337.462" stroke="#EBEEF9" stroke-width="1.3823" stroke-miterlimit="10"/>
<path d="M-705.1 -399.16C-705.1 -399.16 -499.732 -217.157 -287.042 -348.777C-74.3525 -480.397 159.98 -438.905 373.181 -66.491C586.433 305.85 798.446 410.189 1163.37 329.503" stroke="#EBEEF9" stroke-width="1.3015" stroke-miterlimit="10"/>
<path d="M-704.839 -398.201C-704.839 -398.201 -493.777 -220.461 -284.238 -354.095C-74.7002 -487.728 166.751 -453.735 390.181 -70.3678C613.65 313.005 831.933 401.281 1188.71 321.585" stroke="#EBEEF9" stroke-width="1.2206" stroke-miterlimit="10"/>
<path d="M-704.536 -397.238C-704.536 -397.238 -487.78 -223.761 -281.432 -359.413C-75.0841 -495.066 173.565 -468.559 407.178 -74.2062C640.791 320.147 865.378 392.406 1214.02 313.66" stroke="#EBEEF9" stroke-width="1.1397" stroke-miterlimit="10"/>
<path d="M-704.234 -396.275C-704.234 -396.275 -481.783 -227.06 -278.586 -364.726C-75.3901 -502.392 180.385 -483.423 424.214 -78.0385C668.044 327.346 898.863 383.537 1239.41 305.707" stroke="#EBEEF9" stroke-width="1.0588" stroke-miterlimit="10"/>
</g>
</svg>
