<svg width="429" height="424" viewBox="0 0 429 424" fill="none" xmlns="http://www.w3.org/2000/svg">
<mask id="mask0_1114:24423" style="mask-type:alpha" maskUnits="userSpaceOnUse" x="0" y="0" width="429" height="424">
<rect width="429" height="424" fill="#C4C4C4"/>
</mask>
<g mask="url(#mask0_1114:24423)">
<path d="M1338.82 1177.66C1338.82 1177.66 1232.59 841.258 886.597 952.106C540.605 1062.95 436.385 816.004 437.784 640.794C439.182 465.583 339.38 -80.9976 -323.786 43.6784" stroke="#EBEEF9" stroke-width="3" stroke-miterlimit="10"/>
<path d="M1338.49 1176.48C1338.49 1176.48 1225.21 845.352 883.128 958.646C541.047 1071.94 427.993 834.376 416.735 645.5C405.47 456.672 297.906 -70.0586 -355.178 53.4401" stroke="#EBEEF9" stroke-width="2.9191" stroke-miterlimit="10"/>
<path d="M1338.12 1175.28C1338.12 1175.28 1217.78 849.439 879.656 965.234C541.527 1081.03 419.556 852.741 395.683 650.255C371.802 447.817 256.47 -59.0153 -386.531 63.306" stroke="#EBEEF9" stroke-width="2.8382" stroke-miterlimit="10"/>
<path d="M1337.79 1174.1C1337.79 1174.1 1210.4 853.533 876.179 971.822C541.954 1090.11 411.163 871.113 374.625 655.009C338.088 438.905 214.989 -48.0276 -417.979 73.1093" stroke="#EBEEF9" stroke-width="2.7573" stroke-miterlimit="10"/>
<path d="M1337.42 1172.9C1337.42 1172.9 1202.93 857.613 872.703 978.41C542.48 1099.21 402.765 889.534 353.57 659.764C304.417 430.05 173.557 -37.0328 -449.377 82.9197" stroke="#EBEEF9" stroke-width="2.6765" stroke-miterlimit="10"/>
<path d="M1337.1 1171.72C1337.1 1171.72 1195.55 861.707 869.23 984.999C542.917 1108.24 394.327 907.899 332.51 664.567C270.693 421.236 132.12 -25.9896 -480.787 92.827" stroke="#EBEEF9" stroke-width="2.5956" stroke-miterlimit="10"/>
<path d="M1336.72 1170.52C1336.72 1170.52 1188.12 865.794 865.705 991.58C543.296 1117.32 385.886 926.263 311.405 669.315C236.924 412.366 90.5903 -15.0089 -512.234 102.63" stroke="#EBEEF9" stroke-width="2.5147" stroke-miterlimit="10"/>
<path d="M1336.35 1169.33C1336.35 1169.33 1180.68 869.929 862.229 998.168C543.773 1126.41 377.494 944.636 290.349 674.07C203.259 403.462 49.1579 -4.01398 -543.584 112.448" stroke="#EBEEF9" stroke-width="2.4338" stroke-miterlimit="10"/>
<path d="M1336.02 1168.14C1336.02 1168.14 1173.31 874.023 858.762 1004.71C544.217 1135.39 369.105 963.007 269.351 678.783C169.598 394.558 7.72856 6.9806 -574.98 122.258" stroke="#EBEEF9" stroke-width="2.3529" stroke-miterlimit="10"/>
<path d="M1335.65 1166.95C1335.65 1166.95 1165.88 878.11 855.287 1011.3C544.639 1144.52 360.665 981.372 248.296 683.537C135.879 385.695 -33.7028 17.9752 -606.378 132.068" stroke="#EBEEF9" stroke-width="2.2721" stroke-miterlimit="10"/>
<path d="M1335.32 1165.76C1335.32 1165.76 1158.5 882.204 851.812 1017.88C545.116 1153.61 352.274 999.744 227.241 688.292C102.152 376.881 -75.1899 29.0115 -637.831 141.92" stroke="#EBEEF9" stroke-width="2.1912" stroke-miterlimit="10"/>
<path d="M1334.95 1164.57C1334.95 1164.57 1151.07 886.291 848.338 1024.47C545.553 1162.65 343.877 1018.16 206.187 693.046C68.49 367.977 -116.62 40.0062 -669.179 151.737" stroke="#EBEEF9" stroke-width="2.1103" stroke-miterlimit="10"/>
<path d="M1334.57 1163.42C1334.57 1163.42 1143.64 890.426 844.807 1031.1C545.975 1171.78 335.43 1036.58 185.076 697.843C34.7226 359.107 -158.155 51.0356 -700.68 161.582" stroke="#EBEEF9" stroke-width="2.0294" stroke-miterlimit="10"/>
<path d="M1334.25 1162.24C1334.25 1162.24 1136.26 894.52 841.333 1037.69C546.405 1180.86 326.992 1054.94 164.022 702.598C1.05312 350.252 -199.586 62.0303 -732.077 171.393" stroke="#EBEEF9" stroke-width="1.9485" stroke-miterlimit="10"/>
<path d="M1333.87 1161.04C1333.87 1161.04 1128.83 898.607 837.858 1044.28C546.882 1189.95 318.593 1073.36 142.96 707.4C-32.6661 341.389 -241.017 73.0247 -763.474 181.203" stroke="#EBEEF9" stroke-width="1.8677" stroke-miterlimit="10"/>
<path d="M1333.55 1159.86C1333.55 1159.86 1121.45 902.701 834.387 1050.82C547.316 1198.98 310.207 1091.69 121.91 712.107C-66.3874 332.527 -282.506 84.0615 -794.881 191.062" stroke="#EBEEF9" stroke-width="1.7868" stroke-miterlimit="10"/>
<path d="M1333.17 1158.66C1333.17 1158.66 1114.02 906.788 830.913 1057.41C547.801 1208.03 301.768 1110.05 100.856 716.862C-100.057 323.671 -323.937 95.0561 -826.278 200.872" stroke="#EBEEF9" stroke-width="1.7059" stroke-miterlimit="10"/>
<path d="M1332.85 1157.48C1332.85 1157.48 1106.65 910.882 827.438 1063.99C548.23 1217.11 293.377 1128.42 79.8003 721.616C-133.776 314.808 -365.417 106.044 -857.683 210.731" stroke="#EBEEF9" stroke-width="1.625" stroke-miterlimit="10"/>
<path d="M1332.47 1156.28C1332.47 1156.28 1099.22 914.969 823.963 1070.58C548.66 1226.19 284.98 1146.84 58.7463 726.371C-167.487 305.897 -406.848 117.038 -889.08 220.542" stroke="#EBEEF9" stroke-width="1.5441" stroke-miterlimit="10"/>
<path d="M1332.1 1155.09C1332.1 1155.09 1091.79 919.056 820.442 1077.16C549.091 1235.27 276.543 1165.21 37.694 731.125C-201.204 297.035 -448.332 128.075 -920.474 230.352" stroke="#EBEEF9" stroke-width="1.4632" stroke-miterlimit="10"/>
<path d="M1331.78 1153.9C1331.78 1153.9 1084.41 923.15 816.964 1083.75C549.517 1244.36 268.1 1183.57 16.5874 735.873C-234.926 288.172 -489.815 139.062 -951.924 240.155" stroke="#EBEEF9" stroke-width="1.3823" stroke-miterlimit="10"/>
<path d="M1331.4 1152.71C1331.4 1152.71 1076.98 927.237 813.496 1090.29C550.008 1253.35 259.709 1201.95 -4.41222 740.586C-268.596 279.317 -531.246 150.057 -983.328 250.014" stroke="#EBEEF9" stroke-width="1.3015" stroke-miterlimit="10"/>
<path d="M1331.08 1151.52C1331.08 1151.52 1069.61 931.33 810.023 1096.88C550.439 1262.43 251.32 1220.32 -25.4725 745.389C-302.314 270.453 -572.731 161.093 -1014.72 259.824" stroke="#EBEEF9" stroke-width="1.2206" stroke-miterlimit="10"/>
<path d="M1330.7 1150.33C1330.7 1150.33 1062.18 935.417 806.546 1103.47C550.915 1271.52 242.879 1238.68 -46.5285 750.144C-335.936 261.605 -614.164 172.088 -1046.07 269.642" stroke="#EBEEF9" stroke-width="1.1397" stroke-miterlimit="10"/>
<path d="M1330.33 1149.13C1330.33 1149.13 1054.75 939.504 803.021 1110.05C551.294 1280.6 234.431 1257.1 -67.6337 754.892C-369.699 252.687 -655.645 183.076 -1077.53 279.494" stroke="#EBEEF9" stroke-width="1.0588" stroke-miterlimit="10"/>
</g>
</svg>
