<svg width="476" height="437" viewBox="0 0 476 437" fill="none" xmlns="http://www.w3.org/2000/svg">
<g clip-path="url(#clip0_1113:24098)">
<g opacity="0.6">
<path d="M-771.197 1029.74C-771.197 1029.74 -678.903 737.46 -378.297 833.767C-77.6912 930.074 12.8579 715.519 11.6424 563.292C10.427 411.065 97.1381 -63.8179 673.312 44.5036" stroke="#E0E2E7" stroke-width="3" stroke-miterlimit="10"/>
<path d="M-770.915 1028.71C-770.915 1028.71 -672.492 741.017 -375.284 839.449C-78.0758 937.881 20.1483 731.481 29.9296 567.38C39.717 403.322 133.171 -54.3138 700.585 52.9848" stroke="#E0E2E7" stroke-width="2.9191" stroke-miterlimit="10"/>
<path d="M-770.59 1027.67C-770.59 1027.67 -666.039 744.567 -372.265 845.173C-78.4911 945.778 27.4803 747.436 48.2222 571.511C68.9701 395.628 169.173 -44.7191 727.828 61.5565" stroke="#E0E2E7" stroke-width="2.8382" stroke-miterlimit="10"/>
<path d="M-770.308 1026.64C-770.308 1026.64 -659.628 748.124 -369.246 850.897C-78.8638 953.669 34.7706 763.398 66.5153 575.642C98.2599 387.886 205.212 -35.1728 755.149 70.0737" stroke="#E0E2E7" stroke-width="2.7573" stroke-miterlimit="10"/>
<path d="M-769.983 1025.6C-769.983 1025.6 -653.132 751.669 -366.226 856.621C-79.3202 961.573 42.0675 779.403 84.8088 579.773C127.514 380.192 241.209 -25.6201 782.428 78.5974" stroke="#E0E2E7" stroke-width="2.6765" stroke-miterlimit="10"/>
<path d="M-769.701 1024.57C-769.701 1024.57 -646.721 755.226 -363.207 862.345C-79.6994 969.421 49.3996 795.358 103.108 583.946C156.816 372.534 277.211 -16.0256 809.719 87.2051" stroke="#E0E2E7" stroke-width="2.5956" stroke-miterlimit="10"/>
<path d="M-769.376 1023.53C-769.376 1023.53 -640.268 758.777 -360.146 868.063C-80.0296 977.307 56.7323 811.314 121.443 588.071C186.154 364.828 313.292 -6.4853 837.04 95.7224" stroke="#E0E2E7" stroke-width="2.5147" stroke-miterlimit="10"/>
<path d="M-769.051 1022.5C-769.051 1022.5 -633.808 762.37 -357.126 873.787C-80.4445 985.204 64.0225 827.276 139.736 592.202C215.401 357.092 349.288 3.06719 864.277 104.252" stroke="#E0E2E7" stroke-width="2.4338" stroke-miterlimit="10"/>
<path d="M-768.769 1021.46C-768.769 1021.46 -627.398 765.927 -354.114 879.469C-80.8297 993.01 71.3124 843.238 157.981 596.297C244.649 349.356 385.285 12.6196 891.555 112.775" stroke="#E0E2E7" stroke-width="2.3529" stroke-miterlimit="10"/>
<path d="M-768.444 1020.43C-768.444 1020.43 -620.944 769.477 -351.094 885.192C-81.196 1000.94 78.6452 859.194 176.274 600.428C273.945 341.656 421.281 22.172 918.835 121.299" stroke="#E0E2E7" stroke-width="2.2721" stroke-miterlimit="10"/>
<path d="M-768.162 1019.4C-768.162 1019.4 -614.533 773.034 -348.075 890.917C-81.611 1008.84 85.9354 875.156 194.567 604.559C303.246 333.998 457.326 31.7607 946.161 129.858" stroke="#E0E2E7" stroke-width="2.1912" stroke-miterlimit="10"/>
<path d="M-767.838 1018.36C-767.838 1018.36 -608.081 776.585 -345.057 896.641C-81.9906 1016.69 93.2308 891.16 212.859 608.69C332.493 326.262 493.321 41.3131 973.397 138.388" stroke="#E0E2E7" stroke-width="2.1103" stroke-miterlimit="10"/>
<path d="M-767.507 1017.36C-767.507 1017.36 -601.621 780.178 -341.989 902.401C-82.3566 1024.62 100.57 907.158 231.201 612.857C361.832 318.556 529.409 50.8957 1000.77 146.941" stroke="#E0E2E7" stroke-width="2.0294" stroke-miterlimit="10"/>
<path d="M-767.225 1016.33C-767.225 1016.33 -595.21 783.735 -338.969 908.125C-82.7293 1032.51 107.902 923.114 249.494 616.988C391.085 310.862 565.405 60.4482 1028.05 155.465" stroke="#E0E2E7" stroke-width="1.9485" stroke-miterlimit="10"/>
<path d="M-766.901 1015.3C-766.901 1015.3 -588.757 787.285 -335.951 913.848C-83.1448 1040.41 115.198 939.118 267.792 621.161C420.38 303.161 601.401 70.0004 1055.32 163.988" stroke="#E0E2E7" stroke-width="1.8677" stroke-miterlimit="10"/>
<path d="M-766.617 1014.27C-766.617 1014.27 -582.345 790.843 -332.937 919.531C-83.5227 1048.26 122.483 955.038 286.08 625.25C449.677 295.462 637.446 79.5893 1082.61 172.554" stroke="#E0E2E7" stroke-width="1.7868" stroke-miterlimit="10"/>
<path d="M-766.292 1013.23C-766.292 1013.23 -575.891 794.394 -329.917 925.255C-83.9429 1056.12 129.816 970.994 304.374 629.381C478.932 287.768 673.444 89.1418 1109.89 181.077" stroke="#E0E2E7" stroke-width="1.7059" stroke-miterlimit="10"/>
<path d="M-766.01 1012.2C-766.01 1012.2 -569.481 797.95 -326.899 930.978C-84.3164 1064.01 137.106 986.956 322.666 633.512C508.227 280.068 709.482 98.688 1137.17 189.643" stroke="#E0E2E7" stroke-width="1.625" stroke-miterlimit="10"/>
<path d="M-765.686 1011.16C-765.686 1011.16 -563.027 801.501 -323.879 936.703C-84.689 1071.9 144.402 1002.96 340.959 637.643C537.516 272.325 745.478 108.241 1164.45 198.166" stroke="#E0E2E7" stroke-width="1.5441" stroke-miterlimit="10"/>
<path d="M-765.362 1010.12C-765.362 1010.12 -556.575 805.052 -320.818 942.42C-85.0622 1079.79 151.734 1018.92 359.252 641.774C566.812 264.625 781.522 117.829 1191.73 206.69" stroke="#E0E2E7" stroke-width="1.4632" stroke-miterlimit="10"/>
<path d="M-765.079 1009.09C-765.079 1009.09 -550.163 808.609 -317.799 948.144C-85.4347 1087.68 159.067 1034.87 377.587 645.898C596.108 256.925 817.561 127.375 1219.05 215.207" stroke="#E0E2E7" stroke-width="1.3823" stroke-miterlimit="10"/>
<path d="M-764.754 1008.05C-764.754 1008.05 -543.709 812.16 -314.785 953.826C-85.861 1095.49 166.358 1050.83 395.833 649.994C625.362 249.231 853.558 136.928 1246.34 223.773" stroke="#E0E2E7" stroke-width="1.3015" stroke-miterlimit="10"/>
<path d="M-764.472 1007.02C-764.472 1007.02 -537.299 815.716 -311.767 959.55C-86.2345 1103.38 173.647 1066.8 414.131 654.166C654.657 241.531 889.602 146.516 1273.62 232.296" stroke="#E0E2E7" stroke-width="1.2206" stroke-miterlimit="10"/>
<path d="M-764.147 1005.99C-764.147 1005.99 -530.845 819.267 -308.747 965.274C-86.6487 1111.28 180.98 1082.75 432.425 658.298C683.869 233.843 925.599 156.069 1300.85 240.826" stroke="#E0E2E7" stroke-width="1.1397" stroke-miterlimit="10"/>
<path d="M-763.823 1004.95C-763.823 1004.95 -524.392 822.818 -305.686 970.992C-86.9797 1119.17 188.318 1098.75 450.759 662.422C713.201 226.095 961.638 165.615 1328.18 249.385" stroke="#E0E2E7" stroke-width="1.0588" stroke-miterlimit="10"/>
<path d="M-763.54 1003.92C-763.54 1003.92 -517.981 826.375 -302.667 976.716C-87.3945 1127.06 195.609 1114.71 469.053 666.553C742.496 218.395 997.634 175.168 1355.5 257.903" stroke="#E0E2E7" stroke-width="0.9779" stroke-miterlimit="10"/>
<path d="M-763.216 1002.88C-763.216 1002.88 -511.528 829.926 -299.648 982.44C-87.7673 1134.95 202.899 1130.67 487.345 670.684C771.792 210.695 1033.68 184.756 1382.78 266.426" stroke="#E0E2E7" stroke-width="0.8971" stroke-miterlimit="10"/>
<path d="M-762.927 1001.89C-762.927 1001.89 -505.111 833.525 -296.622 988.207C-88.1821 1142.85 210.237 1146.67 505.645 674.858C801.052 203.043 1069.68 194.351 1410.07 275.034" stroke="#E0E2E7" stroke-width="0.8162" stroke-miterlimit="10"/>
<path d="M-762.603 1000.85C-762.603 1000.85 -498.658 837.076 -293.609 993.888C-88.561 1150.7 217.527 1162.63 523.931 678.946C830.335 195.259 1105.71 203.855 1437.34 283.515" stroke="#E0E2E7" stroke-width="0.7353" stroke-miterlimit="10"/>
<path d="M-762.278 999.818C-762.278 999.818 -492.204 840.626 -290.547 999.606C-88.8908 1158.59 224.86 1178.59 542.267 683.071C859.674 187.553 1141.75 213.402 1464.67 292.033" stroke="#E0E2E7" stroke-width="0.6544" stroke-miterlimit="10"/>
<path d="M-761.996 998.787C-761.996 998.787 -485.793 844.183 -287.571 1005.34C-89.3488 1166.49 232.15 1194.55 560.517 687.208C888.884 179.865 1177.75 222.996 1491.91 300.604" stroke="#E0E2E7" stroke-width="0.5735" stroke-miterlimit="10"/>
<path d="M-761.672 997.75C-761.672 997.75 -479.34 847.734 -284.51 1011.05C-89.6794 1174.37 239.488 1210.55 578.858 691.375C918.18 172.165 1213.79 232.543 1519.23 309.121" stroke="#E0E2E7" stroke-width="0.4926" stroke-miterlimit="10"/>
<path d="M-761.388 996.719C-761.388 996.719 -472.928 851.291 -281.49 1016.78C-90.0994 1182.23 246.779 1226.51 597.152 695.507C947.525 164.501 1249.84 242.132 1546.51 317.688" stroke="#E0E2E7" stroke-width="0.4118" stroke-miterlimit="10"/>
<path d="M-761.064 995.682C-761.064 995.682 -466.476 854.842 -278.471 1022.5C-90.4666 1190.16 254.069 1242.47 615.445 699.637C976.821 156.801 1285.83 251.684 1573.79 326.211" stroke="#E0E2E7" stroke-width="0.3309" stroke-miterlimit="10"/>
<path d="M-760.782 994.65C-760.782 994.65 -460.022 858.393 -275.452 1028.23C-90.8815 1198.06 261.408 1258.47 633.738 703.768C1006.07 149.065 1321.84 261.278 1601.08 334.776" stroke="#E0E2E7" stroke-width="0.25" stroke-miterlimit="10"/>
</g>
</g>
<defs>
<clipPath id="clip0_1113:24098">
<rect width="476" height="437" fill="white"/>
</clipPath>
</defs>
</svg>
