<svg width="100" height="100" viewBox="0 0 100 100" fill="none" xmlns="http://www.w3.org/2000/svg">
<path d="M64.2882 16.0152V16H68.2383L69.6815 16.2883C70.6438 16.4754 71.5173 16.7206 72.3022 17.0241C73.0872 17.3275 73.8469 17.6815 74.5811 18.0861C75.3155 18.4906 75.9814 18.9028 76.579 19.3226C77.1715 19.7373 77.7033 20.1772 78.1742 20.6425C78.64 21.1128 79.3668 21.2342 80.3543 21.0066C81.3418 20.779 82.4053 20.4629 83.5447 20.0584C84.6841 19.6538 85.811 19.1987 86.925 18.6929C88.0392 18.1872 88.7178 17.8661 88.9609 17.7296C89.1989 17.588 89.3255 17.5121 89.3407 17.502L89.3558 17.4792L89.4318 17.4413L89.5078 17.4034L89.5837 17.3654L89.6597 17.3275L89.6749 17.3047L89.6977 17.2896L89.7205 17.2744L89.7356 17.2516L89.8116 17.2289L89.8876 17.2137L89.8725 17.3275L89.8496 17.4413L89.8116 17.5551L89.7736 17.6689L89.7356 17.7447L89.6977 17.8206L89.6597 17.9344C89.6344 18.0102 89.6091 18.1113 89.5837 18.2378C89.5584 18.3643 89.3178 18.8699 88.8621 19.7549C88.4063 20.64 87.8366 21.5376 87.1529 22.4479C86.4693 23.3582 85.8565 24.0459 85.3147 24.5112C84.7678 24.9815 84.4057 25.3102 84.2284 25.4974C84.0511 25.6895 83.8359 25.8665 83.5827 26.0284L83.2029 26.2787L83.1269 26.3166L83.0509 26.3546L83.0358 26.3773L83.013 26.3925L82.9902 26.4077L82.975 26.4304L82.899 26.4683L82.8231 26.5063L82.8079 26.529L82.7851 26.5442L82.7623 26.5594L82.7471 26.5821L82.732 26.6049L82.7091 26.6201L82.6863 26.6352L82.6711 26.658H83.0509L85.1779 26.2028C86.5959 25.8994 87.9505 25.5328 89.2419 25.1029L91.2929 24.4202L91.5208 24.3443L91.6347 24.3064L91.7107 24.2685L91.7866 24.2305L91.8626 24.1926L91.9386 24.1547L92.0905 24.1319L92.2424 24.1168V24.2685L92.2044 24.2836L92.1664 24.3064L92.1513 24.3292L92.1285 24.3443L92.1057 24.3595L92.0905 24.3823L92.0754 24.405L92.0525 24.4202L92.0297 24.4354L92.0145 24.4581L91.9994 24.4809L91.9765 24.496L91.9386 24.5719L91.9006 24.6478L91.8778 24.6629C91.8677 24.6781 91.5461 25.1079 90.9131 25.9525C90.2801 26.8021 89.9382 27.2319 89.8876 27.2421C89.837 27.2573 89.766 27.3331 89.6749 27.4697C89.5888 27.6112 89.052 28.1751 88.0645 29.1613C87.077 30.1474 86.1098 31.0248 85.1628 31.7935C84.2107 32.5673 83.7296 33.518 83.7195 34.6458C83.7043 35.7685 83.646 37.0379 83.5447 38.4538C83.4434 39.8699 83.2535 41.3996 82.975 43.0432C82.6965 44.6868 82.266 46.5453 81.6836 48.6187C81.1013 50.6921 80.3923 52.715 79.5567 54.6873C78.7211 56.6596 77.8475 58.4296 76.936 59.9974C76.0244 61.5651 75.1888 62.8926 74.4292 63.9799C73.6696 65.0671 72.8973 66.0912 72.1123 67.0521C71.3274 68.013 70.3349 69.0953 69.1347 70.2988C67.9294 71.4974 67.2711 72.1548 67.1597 72.2711C67.0432 72.3824 66.547 72.7971 65.6707 73.5152C64.7997 74.2383 63.8628 74.9615 62.8601 75.6847C61.8625 76.4028 60.9459 77.0021 60.1103 77.4825C59.2747 77.9629 58.267 78.5116 57.087 79.1286C55.9121 79.7507 54.641 80.3272 53.2736 80.8582C51.9063 81.3892 50.463 81.8823 48.9438 82.3374C47.4245 82.7925 45.956 83.1466 44.538 83.3994C43.12 83.6522 41.5121 83.8672 39.7143 84.0442L37.0177 84.3097V84.3476H32.0801V84.3097L31.4344 84.2718C31.004 84.2465 30.6495 84.2212 30.371 84.1959C30.0925 84.1707 29.0416 84.0315 27.2185 83.7787C25.3954 83.5259 23.9648 83.273 22.9266 83.0201C21.8885 82.7673 20.3439 82.2868 18.2929 81.5788C16.2419 80.8708 14.4872 80.1552 13.0287 79.4321C11.5753 78.7139 10.6638 78.2588 10.2941 78.0666C9.92945 77.8795 9.51925 77.6469 9.06347 77.3687L8.37981 76.9515L8.3647 76.9288L8.34183 76.9136L8.31904 76.8984L8.30385 76.8757L8.22789 76.8377L8.15192 76.7998L8.13681 76.777L8.11394 76.7619L8.09115 76.7467L8.07596 76.7239L8.06085 76.7012L8.03798 76.686H8V76.5343L8.07596 76.5495L8.15192 76.5722L8.49376 76.6102C8.72164 76.6354 9.34203 76.6733 10.3548 76.7239C11.3677 76.7745 12.4438 76.7745 13.5832 76.7239C14.7227 76.6733 15.8875 76.5596 17.0775 76.3826C18.2676 76.2056 19.6729 75.9022 21.2934 75.4723C22.914 75.0424 24.4029 74.5317 25.7601 73.94C27.1122 73.3433 28.0744 72.8982 28.6467 72.6049C29.2138 72.3166 30.0798 71.7805 31.2445 70.9967L32.9917 69.8209L33.0069 69.7982L33.0296 69.783L33.0525 69.7678L33.0676 69.7451L33.0828 69.7223L33.1056 69.7071L33.1285 69.692L33.1436 69.6692L33.2195 69.6464L33.2955 69.6313L33.3107 69.5554L33.3335 69.4796L33.3564 69.4644L33.3715 69.4416L32.7638 69.4037C32.3587 69.3784 31.9662 69.3531 31.5864 69.3278C31.2065 69.3026 30.6115 69.1888 29.8012 68.9865C28.991 68.7842 28.1175 68.4807 27.1805 68.0762C26.2437 67.6716 25.3321 67.1912 24.4459 66.6349C23.5597 66.0786 22.919 65.6158 22.524 65.2467C22.1341 64.8825 21.6277 64.3668 21.0048 63.6992C20.387 63.0267 19.8501 62.3363 19.3944 61.6283C18.9386 60.9203 18.5031 60.1035 18.0879 59.1781L17.4573 57.7975L17.4193 57.6837L17.3814 57.5699L17.3586 57.4941L17.3434 57.4182L17.4573 57.4334L17.5713 57.4561L18.4069 57.5699C18.964 57.6458 19.8375 57.671 21.0276 57.6458C22.2177 57.6205 23.0406 57.5699 23.4963 57.4941C23.9521 57.4182 24.2307 57.3676 24.3319 57.3423L24.4839 57.3044L24.6738 57.2665L24.8637 57.2286L24.8789 57.2058L24.9017 57.1906L24.9245 57.1755L24.9396 57.1527L24.7877 57.1148L24.6358 57.0768L24.4839 57.0389L24.3319 57.001L24.18 56.9631C24.0788 56.9378 23.9015 56.8872 23.6483 56.8113C23.3951 56.7355 22.7114 56.4573 21.5973 55.9769C20.4832 55.4965 19.597 55.0287 18.9386 54.5735C18.2786 54.1171 17.6493 53.6179 17.0547 53.0792C16.4622 52.533 15.8115 51.83 15.1025 50.9703C14.3935 50.1106 13.7605 49.1118 13.2034 47.9739C12.6464 46.8361 12.2286 45.7488 11.95 44.7121C11.6726 43.6814 11.4896 42.6277 11.4032 41.564L11.2664 39.971L11.3423 39.9861L11.4183 40.0089L11.4943 40.0468L11.5702 40.0848L11.6462 40.1227L11.7222 40.1606L12.8996 40.6916C13.6846 41.0456 14.6594 41.3491 15.8241 41.6019C16.9889 41.8547 17.6852 41.9939 17.9131 42.0191L18.2549 42.0571H18.9386L18.9235 42.0343L18.9006 42.0191L18.8778 42.004L18.8626 41.9812L18.8475 41.9584L18.8247 41.9433L18.8019 41.9281L18.7867 41.9053L18.7107 41.8674L18.6347 41.8295L18.6196 41.8067L18.5968 41.7916L18.574 41.7764L18.5588 41.7536L18.4828 41.7157L18.4069 41.6778L18.3917 41.655C18.3766 41.6448 18.1588 41.483 17.7384 41.1695C17.3231 40.8509 16.8876 40.4388 16.4318 39.933C15.9761 39.4273 15.5203 38.8963 15.0645 38.34C14.6079 37.7825 14.2012 37.186 13.8491 36.5574C13.4947 35.9253 13.1199 35.1211 12.7249 34.1451C12.335 33.1741 12.0387 32.1956 11.8361 31.2094C11.6336 30.2233 11.5196 29.2498 11.4943 28.2889C11.469 27.328 11.4943 26.5063 11.5702 25.8235C11.6462 25.1408 11.7981 24.3696 12.026 23.5099C12.2539 22.6502 12.5831 21.7399 13.0135 20.779L13.6592 19.3377L13.6972 19.2239L13.7352 19.1102L13.758 19.095L13.7731 19.0722L13.7883 19.0495L13.8111 19.0343L13.834 19.0495L13.8491 19.0722L13.8643 19.095L13.8871 19.1102L13.91 19.1253L13.9251 19.1481L13.9403 19.1708L13.9631 19.186L14.001 19.2619L14.039 19.3377L14.0619 19.3529L14.077 19.3757L15.1025 20.5135C15.7862 21.2721 16.5964 22.1192 17.5333 23.0547C18.4702 23.9903 18.9893 24.4758 19.0905 24.5112C19.1919 24.5516 19.3184 24.6679 19.4703 24.8602C19.6223 25.0473 20.1287 25.4949 20.9896 26.2028C21.8505 26.9108 22.9773 27.7327 24.3699 28.6682C25.7626 29.6038 27.3072 30.5267 29.0036 31.437C30.7002 32.3473 32.5233 33.1691 34.4729 33.9024C36.4227 34.6357 37.79 35.1161 38.5749 35.3437C39.3599 35.5712 40.7019 35.862 42.6009 36.216C44.5 36.5701 45.9307 36.7976 46.8928 36.8987C47.855 36.9999 48.5134 37.058 48.8678 37.0732L49.3996 37.0884L49.3844 36.9746L49.3616 36.8608L49.2097 35.9126C49.1084 35.2805 49.0577 34.3954 49.0577 33.2576C49.0577 32.1197 49.1464 31.0704 49.3236 30.1095C49.5009 29.1486 49.7668 28.1751 50.1212 27.189C50.4757 26.2028 50.8226 25.4113 51.1619 24.8146C51.5063 24.223 51.957 23.5478 52.514 22.7892C53.0711 22.0307 53.7928 21.2468 54.679 20.4377C55.5652 19.6285 56.578 18.9078 57.7175 18.2757C58.8569 17.6436 59.9078 17.1631 60.8699 16.8344C61.8321 16.5057 62.6424 16.2908 63.3007 16.1896C63.9591 16.0885 64.2882 16.0303 64.2882 16.0152V16.0152Z" fill="white"/>
</svg>
