<svg width="100" height="100" viewBox="0 0 100 100" fill="none" xmlns="http://www.w3.org/2000/svg">
<path fill-rule="evenodd" clip-rule="evenodd" d="M14 49.8731C14 35.5432 14 28.3783 17.4147 23.2176C18.9395 20.9131 20.9131 18.9395 23.2176 17.4147C28.3783 14 35.5432 14 49.8731 14C64.2029 14 71.3678 14 76.5285 17.4147C78.833 18.9395 80.8066 20.9131 82.3314 23.2176C85.7461 28.3783 85.7461 35.5432 85.7461 49.8731C85.7461 64.2029 85.7461 71.3678 82.3314 76.5285C80.8066 78.833 78.833 80.8066 76.5285 82.3314C71.3678 85.7461 64.2029 85.7461 49.8731 85.7461C35.5432 85.7461 28.3783 85.7461 23.2176 82.3314C20.9131 80.8066 18.9395 78.833 17.4147 76.5285C14 71.3678 14 64.2029 14 49.8731ZM68.4485 49.8719C68.4485 60.1289 60.1336 68.4438 49.8766 68.4438C39.6196 68.4438 31.3047 60.1289 31.3047 49.8719C31.3047 39.6149 39.6196 31.3 49.8766 31.3C60.1336 31.3 68.4485 39.6149 68.4485 49.8719ZM49.8766 62.1604C56.6634 62.1604 62.1651 56.6587 62.1651 49.8719C62.1651 43.0851 56.6634 37.5834 49.8766 37.5834C43.0898 37.5834 37.5881 43.0851 37.5881 49.8719C37.5881 56.6587 43.0898 62.1604 49.8766 62.1604ZM69.1803 34.7308C71.5903 34.7308 73.5441 32.777 73.5441 30.3669C73.5441 27.9568 71.5903 26.0031 69.1803 26.0031C66.7702 26.0031 64.8164 27.9568 64.8164 30.3669C64.8164 32.777 66.7702 34.7308 69.1803 34.7308Z" fill="white"/>
</svg>
