<svg width="100" height="100" viewBox="0 0 100 100" fill="none" xmlns="http://www.w3.org/2000/svg">
<path d="M51.684 83.1745L32.1625 82.8096C25.8419 82.6825 19.5055 82.9363 13.3088 81.6191C3.88224 79.6512 3.21443 70.0019 2.51563 61.908C1.55276 50.529 1.92551 38.9434 3.74258 27.6594C4.76837 21.3278 8.80527 17.5498 15.0482 17.1386C36.1227 15.6466 57.3373 15.8234 78.3651 16.5195C80.5859 16.5833 82.822 16.9321 85.0118 17.3291C95.8212 19.2654 96.0848 30.2002 96.7855 39.4052C97.4843 48.7052 97.1892 58.053 95.8536 67.2896C94.7821 74.9374 92.7319 81.3507 84.0799 81.9699C73.2395 82.7794 62.6479 83.4312 51.777 83.2237C51.7775 83.1745 51.715 83.1745 51.684 83.1745ZM40.2073 63.8126C48.3764 59.0194 56.3897 54.3061 64.5121 49.545C56.3277 44.7518 48.3297 40.0384 40.2073 35.2774V63.8126Z" fill="white"/>
</svg>
