<svg width="493" height="450" viewBox="0 0 493 450" fill="none" xmlns="http://www.w3.org/2000/svg">
<mask id="mask0_1114:24148" style="mask-type:alpha" maskUnits="userSpaceOnUse" x="0" y="0" width="493" height="450">
<rect width="493" height="450" fill="#C4C4C4"/>
</mask>
<g mask="url(#mask0_1114:24148)">
<path d="M1242.31 -607.533C1242.31 -607.533 1159.34 -312.474 855.832 -399.193C552.321 -485.912 468.626 -268.591 474.672 -116.479C480.717 35.6327 409.12 513.028 -170.201 423.046" stroke="#394F99" stroke-width="3" stroke-miterlimit="10"/>
<path d="M1242.06 -606.494C1242.06 -606.494 1152.82 -315.825 852.64 -404.776C552.457 -493.727 460.833 -284.313 456.264 -119.985C451.688 44.3007 372.804 504.672 -197.73 415.434" stroke="#394F99" stroke-width="2.9191" stroke-miterlimit="10"/>
<path d="M1241.77 -605.447C1241.77 -605.447 1146.26 -319.17 849.441 -410.401C552.622 -501.633 452.998 -300.028 437.85 -123.534C422.694 52.919 336.516 496.225 -225.23 407.731" stroke="#394F99" stroke-width="2.8382" stroke-miterlimit="10"/>
<path d="M1241.52 -604.407C1241.52 -604.407 1139.74 -322.521 846.241 -416.027C552.743 -509.532 445.204 -315.751 419.434 -127.082C393.664 61.587 300.192 487.827 -252.808 400.085" stroke="#394F99" stroke-width="2.7573" stroke-miterlimit="10"/>
<path d="M1241.23 -603.36C1241.23 -603.36 1133.13 -325.858 843.041 -421.652C552.949 -517.446 437.403 -331.516 401.019 -130.631C364.668 70.2053 263.91 479.421 -280.345 392.432" stroke="#394F99" stroke-width="2.6765" stroke-miterlimit="10"/>
<path d="M1240.98 -602.321C1240.98 -602.321 1126.61 -329.21 839.842 -427.277C553.079 -525.303 429.569 -347.231 382.597 -134.221C335.625 78.7893 227.622 470.974 -307.894 384.694" stroke="#394F99" stroke-width="2.5956" stroke-miterlimit="10"/>
<path d="M1240.69 -601.274C1240.69 -601.274 1120.05 -332.554 836.601 -432.895C553.159 -533.195 421.734 -362.946 364.14 -137.762C306.546 87.4225 191.256 462.584 -335.472 377.048" stroke="#394F99" stroke-width="2.5147" stroke-miterlimit="10"/>
<path d="M1240.4 -600.227C1240.4 -600.227 1113.48 -335.94 833.402 -438.521C553.323 -541.101 413.941 -378.668 345.725 -141.31C277.559 96.0829 154.975 454.178 -362.966 369.387" stroke="#394F99" stroke-width="2.4338" stroke-miterlimit="10"/>
<path d="M1240.15 -599.187C1240.15 -599.187 1106.96 -339.292 830.21 -444.104C553.46 -548.916 406.148 -394.391 327.36 -144.824C248.572 104.743 118.693 445.773 -390.501 361.734" stroke="#394F99" stroke-width="2.3529" stroke-miterlimit="10"/>
<path d="M1239.86 -598.14C1239.86 -598.14 1100.4 -342.636 827.01 -449.729C553.574 -556.857 398.312 -410.106 308.944 -148.372C219.535 113.369 82.4112 437.368 -418.037 354.081" stroke="#394F99" stroke-width="2.2721" stroke-miterlimit="10"/>
<path d="M1239.61 -597.101C1239.61 -597.101 1093.88 -345.988 823.811 -455.354C553.738 -564.763 390.519 -425.829 290.529 -151.92C190.491 121.953 46.0805 428.928 -445.622 346.393" stroke="#394F99" stroke-width="2.1912" stroke-miterlimit="10"/>
<path d="M1239.32 -596.054C1239.32 -596.054 1087.31 -349.332 820.612 -460.98C553.869 -572.62 382.72 -441.593 272.116 -155.469C161.505 130.613 9.80028 420.522 -473.114 338.732" stroke="#394F99" stroke-width="2.1103" stroke-miterlimit="10"/>
<path d="M1239.02 -595.049C1239.02 -595.049 1080.74 -352.718 817.363 -466.64C553.983 -580.561 374.876 -457.35 253.651 -159.052C132.425 139.247 -26.5735 412.09 -500.742 331.051" stroke="#394F99" stroke-width="2.0294" stroke-miterlimit="10"/>
<path d="M1238.77 -594.01C1238.77 -594.01 1074.22 -356.07 814.164 -472.265C554.105 -588.46 367.041 -473.066 235.236 -162.6C103.431 147.865 -62.8547 403.685 -528.278 323.398" stroke="#394F99" stroke-width="1.9485" stroke-miterlimit="10"/>
<path d="M1238.48 -592.963C1238.48 -592.963 1067.66 -359.414 810.965 -477.89C554.27 -596.367 359.241 -488.83 216.814 -166.19C74.3944 156.491 -99.1355 395.279 -555.813 315.744" stroke="#394F99" stroke-width="1.8677" stroke-miterlimit="10"/>
<path d="M1238.23 -591.923C1238.23 -591.923 1061.14 -362.766 807.772 -483.474C554.398 -604.224 351.455 -504.511 198.406 -169.697C45.3566 165.117 -135.467 386.839 -583.357 308.048" stroke="#394F99" stroke-width="1.7868" stroke-miterlimit="10"/>
<path d="M1237.94 -590.876C1237.94 -590.876 1054.57 -366.11 804.572 -489.099C554.569 -612.088 343.619 -520.226 179.99 -173.245C16.3613 173.735 -171.75 378.434 -610.893 300.395" stroke="#394F99" stroke-width="1.7059" stroke-miterlimit="10"/>
<path d="M1237.69 -589.837C1237.69 -589.837 1048.06 -369.461 801.374 -494.724C554.692 -619.987 335.827 -535.948 161.576 -176.794C-12.674 182.361 -208.072 370.036 -638.435 292.7" stroke="#394F99" stroke-width="1.625" stroke-miterlimit="10"/>
<path d="M1237.4 -588.79C1237.4 -588.79 1041.49 -372.806 798.174 -500.35C554.814 -627.886 328.026 -551.713 143.161 -180.342C-41.704 191.029 -244.354 361.631 -665.971 285.046" stroke="#394F99" stroke-width="1.5441" stroke-miterlimit="10"/>
<path d="M1237.1 -587.743C1237.1 -587.743 1034.93 -376.15 794.933 -505.968C554.937 -635.785 320.191 -567.428 124.747 -183.89C-70.7399 199.655 -280.684 353.191 -693.506 277.393" stroke="#394F99" stroke-width="1.4632" stroke-miterlimit="10"/>
<path d="M1236.85 -586.704C1236.85 -586.704 1028.41 -379.501 791.734 -511.593C555.058 -643.684 312.356 -583.143 106.289 -187.431C-99.7771 208.281 -317.008 344.793 -721.084 269.747" stroke="#394F99" stroke-width="1.3823" stroke-miterlimit="10"/>
<path d="M1236.56 -585.657C1236.56 -585.657 1021.85 -382.846 788.541 -517.176C555.236 -651.507 304.562 -598.866 87.9232 -190.945C-128.772 216.899 -353.29 336.387 -748.628 262.051" stroke="#394F99" stroke-width="1.3015" stroke-miterlimit="10"/>
<path d="M1236.31 -584.617C1236.31 -584.617 1015.33 -386.197 785.343 -522.801C555.359 -659.406 296.77 -614.588 69.5018 -194.535C-157.808 225.525 -389.62 327.948 -776.162 254.398" stroke="#394F99" stroke-width="1.2206" stroke-miterlimit="10"/>
<path d="M1236.02 -583.57C1236.02 -583.57 1008.76 -389.542 782.143 -528.427C555.524 -667.312 288.935 -630.304 51.0869 -198.084C-186.761 234.136 -425.901 319.542 -803.656 246.737" stroke="#394F99" stroke-width="1.1397" stroke-miterlimit="10"/>
<path d="M1235.73 -582.524C1235.73 -582.524 1002.2 -392.886 778.902 -534.045C555.604 -675.204 281.092 -646.061 32.6302 -201.625C-215.832 242.811 -462.225 311.144 -831.241 239.049" stroke="#394F99" stroke-width="1.0588" stroke-miterlimit="10"/>
<path d="M1235.48 -581.484C1235.48 -581.484 995.679 -396.237 775.702 -539.67C555.767 -683.11 273.299 -661.783 14.2148 -205.173C-244.869 251.437 -498.507 302.739 -858.819 231.403" stroke="#394F99" stroke-width="0.9779" stroke-miterlimit="10"/>
<path d="M1235.19 -580.437C1235.19 -580.437 989.117 -399.582 772.503 -545.295C555.889 -691.009 265.506 -677.506 -4.20025 -208.721C-273.906 260.063 -534.837 294.299 -886.355 223.749" stroke="#394F99" stroke-width="0.8971" stroke-miterlimit="10"/>
<path d="M1234.93 -579.44C1234.93 -579.44 982.589 -402.975 769.297 -550.963C556.054 -698.916 257.664 -693.263 -22.6216 -212.312C-302.907 268.639 -571.125 285.852 -913.904 216.012" stroke="#394F99" stroke-width="0.8162" stroke-miterlimit="10"/>
<path d="M1234.64 -578.393C1234.64 -578.393 976.026 -406.319 766.105 -556.546C556.183 -706.772 249.87 -708.986 -41.0296 -215.818C-331.93 277.349 -607.442 277.496 -941.433 208.4" stroke="#394F99" stroke-width="0.7353" stroke-miterlimit="10"/>
<path d="M1234.35 -577.346C1234.35 -577.346 969.463 -409.664 762.863 -562.164C556.263 -714.664 242.035 -724.701 -59.4865 -219.359C-361.008 285.983 -643.765 269.098 -969.01 200.754" stroke="#394F99" stroke-width="0.6544" stroke-miterlimit="10"/>
<path d="M1234.1 -576.306C1234.1 -576.306 962.943 -413.015 759.706 -567.797C556.47 -722.578 234.242 -740.423 -77.8591 -222.915C-389.961 294.594 -680.054 260.651 -996.511 193.052" stroke="#394F99" stroke-width="0.5735" stroke-miterlimit="10"/>
<path d="M1233.81 -575.259C1233.81 -575.259 956.381 -416.36 756.466 -573.414C556.55 -730.469 226.401 -756.18 -96.3228 -226.498C-418.997 303.22 -716.377 252.253 -1024.09 185.406" stroke="#394F99" stroke-width="0.4926" stroke-miterlimit="10"/>
<path d="M1233.56 -574.22C1233.56 -574.22 949.859 -419.712 753.265 -579.04C556.721 -738.334 218.606 -771.903 -114.739 -230.047C-448.084 311.81 -752.709 243.813 -1051.63 177.71" stroke="#394F99" stroke-width="0.4118" stroke-miterlimit="10"/>
<path d="M1233.27 -573.173C1233.27 -573.173 943.296 -423.056 750.066 -584.665C556.835 -746.275 210.813 -787.626 -133.154 -233.595C-477.121 320.436 -788.99 235.408 -1079.17 170.057" stroke="#394F99" stroke-width="0.3309" stroke-miterlimit="10"/>
<path d="M1233.02 -572.133C1233.02 -572.133 936.733 -426.4 746.866 -590.29C556.999 -754.181 202.97 -803.383 -151.569 -237.143C-506.108 329.097 -825.279 226.961 -1106.71 162.361" stroke="#394F99" stroke-width="0.25" stroke-miterlimit="10"/>
</g>
</svg>
