<svg width="114" height="114" viewBox="0 0 114 114" fill="none" xmlns="http://www.w3.org/2000/svg">
<rect width="114" height="114" fill="#EDEFF6"/>
<path d="M87.8593 47.5349L83.1693 45.4122C82.5621 42.9278 81.0328 40.6201 78.358 39.1764C75.1504 37.4457 71.0733 37.7189 68.1362 39.8803C64.9893 42.1963 63.7113 45.8842 64.2937 49.3209C64.6194 51.2366 63.104 52.9729 61.191 52.6361C55.2727 51.5955 44.1373 47.6702 31.3593 33.421C29.6148 31.4777 26.6059 32.1843 25.891 34.7377C22.9539 45.2327 27.9613 50.4195 31.0309 51.8439C31.0336 51.8467 28.2705 71.1667 47.5933 68.4063L41.8075 74.1231C40.1844 75.7462 40.2534 78.4432 42.0062 79.9227C45.407 82.7935 48.7002 84.6596 52.308 85.8079C54.5053 86.5063 56.3603 85.4849 57.263 83.7128C57.263 83.7128 57.5059 83.2352 58.4886 81.5624C59.7473 79.4231 61.8922 77.8883 64.3572 77.5985C74.0158 76.4639 83.1114 69.4884 80.1715 56.0646C79.9618 54.0053 81.1294 52.9812 82.4516 52.5175L87.8593 50.6293C89.3802 49.9448 89.3802 48.2223 87.8593 47.5349Z" fill="#1F3584"/>
<path opacity="0.5" d="M61.3566 52.6418C63.1895 52.8433 64.6056 51.1705 64.2937 49.3072C64.2633 49.1333 64.2605 48.9566 64.2412 48.78C59.4271 43.8996 53.7544 37.236 47.8996 28.3889C46.4642 26.2192 42.8895 26.6968 41.7771 29.09C38.6606 35.8006 40.5929 40.8742 42.5527 43.803C50.5965 49.8593 57.2657 51.9406 61.3566 52.6418Z" fill="#1F3584"/>
</svg>
