<svg width="114" height="114" viewBox="0 0 114 114" fill="none" xmlns="http://www.w3.org/2000/svg">
<rect width="114" height="114" fill="#EDEFF6"/>
<path d="M87.5844 43.9187C87.7625 40.7625 85.5468 37.8656 82.425 37.35C69.4531 35.2156 70.45 25.25 56.5 25.25C42.55 25.25 43.5468 35.2156 30.575 37.35C27.4531 37.8625 25.2375 40.7594 25.4156 43.9187C26.7531 67.7625 36.2937 79.0906 56.5 87.75C76.7062 79.0906 86.2469 67.7625 87.5844 43.9187Z" fill="#1F3584"/>
<path opacity="0.5" d="M53.375 69C52.575 69 51.775 68.6938 51.1656 68.0844L41.7906 58.7094C40.5687 57.4875 40.5687 55.5125 41.7906 54.2907C43.0125 53.0688 44.9875 53.0688 46.2094 54.2907L53.375 61.4563L66.7906 48.0407C68.0125 46.8188 69.9875 46.8188 71.2094 48.0407C72.4312 49.2625 72.4312 51.2375 71.2094 52.4594L55.5844 68.0844C54.975 68.6938 54.175 69 53.375 69Z" fill="white"/>
</svg>
