<svg width="114" height="114" viewBox="0 0 114 114" fill="none" xmlns="http://www.w3.org/2000/svg">
<rect width="114" height="114" fill="#EDEFF6"/>
<path opacity="0.35" d="M78.2081 34.1421H35.2132C30.1244 34.1421 26 38.2665 26 43.3553V58.7106C26 63.7994 30.1244 67.9238 35.2132 67.9238H78.2081C83.2969 67.9238 87.4213 63.7994 87.4213 58.7106V43.3553C87.4213 38.2665 83.2969 34.1421 78.2081 34.1421Z" fill="#8F9AC1"/>
<path d="M75.137 61.7815C76.8331 61.7815 78.208 60.4066 78.208 58.7105C78.208 57.0144 76.8331 55.6394 75.137 55.6394C73.4409 55.6394 72.0659 57.0144 72.0659 58.7105C72.0659 60.4066 73.4409 61.7815 75.137 61.7815Z" fill="#1F3584"/>
<path d="M38.2843 61.7815C39.9804 61.7815 41.3553 60.4066 41.3553 58.7105C41.3553 57.0144 39.9804 55.6394 38.2843 55.6394C36.5882 55.6394 35.2132 57.0144 35.2132 58.7105C35.2132 60.4066 36.5882 61.7815 38.2843 61.7815Z" fill="#1F3584"/>
<path d="M78.2081 67.9239H35.2132C30.1244 67.9239 26 63.7994 26 58.7107V77.1371C26 82.2258 30.1244 86.3503 35.2132 86.3503H78.2081C83.2969 86.3503 87.4213 82.2258 87.4213 77.1371V58.7107C87.4213 63.7994 83.2969 67.9239 78.2081 67.9239Z" fill="#1F3584"/>
<path d="M59.7817 28C58.6577 28 54.7636 28 53.6396 28C50.246 28 47.4974 30.7486 47.4974 34.1421H65.9238C65.9238 30.7486 63.1752 28 59.7817 28Z" fill="#1F3584"/>
</svg>
