<svg width="114" height="114" viewBox="0 0 114 114" fill="none" xmlns="http://www.w3.org/2000/svg">
<rect width="114" height="114" fill="#EDEFF6"/>
<path d="M72.0844 68.403C76.3818 65.3163 79.5891 60.9457 81.2447 55.9203C82.9003 50.8949 82.9187 45.4737 81.2973 40.4372C79.676 35.4006 76.4985 31.0083 72.2221 27.8925C67.9458 24.7766 62.7911 23.0979 57.5 23.0979C52.2089 23.0979 47.0542 24.7766 42.7779 27.8925C38.5015 31.0083 35.324 35.4006 33.7027 40.4372C32.0813 45.4737 32.0997 50.8949 33.7553 55.9203C35.4109 60.9457 38.6182 65.3163 42.9156 68.403L44.925 76.2498H70.075L72.0844 68.403Z" fill="#1F3584"/>
<path opacity="0.5" d="M67 29.5C67.5239 29.764 75 31.5 76.5 41.5" stroke="white" stroke-width="3.26958" stroke-linecap="round"/>
<path opacity="0.35" d="M68.6782 81.7L70.075 76.25H44.925L46.3188 81.7C46.835 83.7165 48.0077 85.5039 49.6519 86.7804C51.2962 88.0569 53.3185 88.7498 55.4 88.75H59.5969C61.6785 88.7498 63.7008 88.0569 65.345 86.7804C66.9893 85.5039 68.1619 83.7165 68.6782 81.7Z" fill="#1F3584"/>
</svg>
