<svg width="114" height="114" viewBox="0 0 114 114" fill="none" xmlns="http://www.w3.org/2000/svg">
<rect width="114" height="114" fill="#EDEFF6"/>
<path d="M84.9363 76.6424C84.0946 75.8007 79.2409 70.947 76.7217 68.4277C74.613 71.7769 71.7771 74.6129 68.4279 76.7215C70.9471 79.2408 75.8008 84.0945 76.6425 84.9362C78.933 87.2266 82.6458 87.2266 84.9363 84.9362C87.2268 82.6457 87.2268 78.9328 84.9363 76.6424Z" fill="#8F9AC1"/>
<path d="M54.3947 80.7894C68.9721 80.7894 80.7894 68.9721 80.7894 54.3947C80.7894 39.8173 68.9721 28 54.3947 28C39.8173 28 28 39.8173 28 54.3947C28 68.9721 39.8173 80.7894 54.3947 80.7894Z" fill="#1F3584"/>
<path opacity="0.5" d="M61.551 36.5322C62.0749 36.7962 71.051 38.5322 72.551 48.5322" stroke="white" stroke-width="3.26958" stroke-linecap="round"/>
</svg>
