<svg width="114" height="114" viewBox="0 0 114 114" fill="none" xmlns="http://www.w3.org/2000/svg">
<rect width="114" height="114" fill="#EDEFF6"/>
<path d="M34.7507 62.8937C37.2518 65.3947 52.3849 77.983 53.4345 79.0326C54.4817 80.0798 55.8528 80.601 57.2239 80.601C58.595 80.601 59.9661 80.0774 61.0133 79.0326C62.0653 77.983 77.1985 65.3923 79.6971 62.8937C85.4518 57.139 85.4518 47.8117 79.6971 42.057C73.9424 36.3023 64.6151 36.3023 58.8604 42.057C58.237 42.6804 57.7134 43.3623 57.2239 44.0613C56.7344 43.3623 56.2108 42.6804 55.5874 42.057C49.8327 36.3023 40.5054 36.3023 34.7507 42.057C28.996 47.8117 28.996 57.139 34.7507 62.8937Z" fill="#1F3584"/>
<path opacity="0.5" d="M71.2066 42.0547C71.7305 42.3187 79.3067 42.6056 79.0771 51.9036" stroke="white" stroke-width="3.26958" stroke-linecap="round"/>
</svg>
