<svg width="88" height="88" viewBox="0 0 88 88" fill="none" xmlns="http://www.w3.org/2000/svg">
<path d="M66 80.3333H22C15.9243 80.3333 11 75.409 11 69.3333V40C11 33.9243 15.9243 29 22 29H66C72.0757 29 77 33.9243 77 40V69.3333C77 75.409 72.0757 80.3333 66 80.3333Z" fill="#FF344C"/>
<path opacity="0.5" d="M29.3333 29C29.3333 20.9003 35.9003 14.3333 44 14.3333C52.0997 14.3333 58.6667 20.9003 58.6667 29H66C66 16.8487 56.1513 7 44 7C31.8487 7 22 16.8487 22 29H29.3333Z" fill="#FF344C"/>
<path d="M44.0013 47.3333C39.9496 47.3333 36.668 50.615 36.668 54.6666C36.668 58.7183 39.9496 62 44.0013 62C48.053 62 51.3346 58.7183 51.3346 54.6666C51.3346 50.615 48.053 47.3333 44.0013 47.3333Z" fill="white"/>
</svg>
